<svg width="552" height="224" viewBox="0 0 552 224" fill="none" xmlns="http://www.w3.org/2000/svg">
<g clip-path="url(#clip0_1_726)">
<path d="M369.216 218.952L364.538 218.952L362.312 200.959L369.217 200.959L369.216 218.952Z" fill="#FFD4C0"/>
<path d="M370.409 223.474L355.325 223.473V223.283C355.325 221.73 355.944 220.241 357.045 219.143C358.146 218.045 359.639 217.429 361.196 217.428L363.952 215.344L369.092 217.429L370.409 217.429L370.409 223.474Z" fill="#3C2F35"/>
<path d="M347.482 218.952L342.805 218.952L340.579 200.959L347.484 200.959L347.482 218.952Z" fill="#FFD4C0"/>
<path d="M348.676 223.474L333.592 223.473V223.283C333.592 221.73 334.21 220.241 335.311 219.143C336.412 218.045 337.906 217.429 339.463 217.428L342.218 215.344L347.359 217.429L348.676 217.429L348.676 223.474Z" fill="#3C2F35"/>
<path d="M345.458 120.583L375.886 121.342C381.665 124.472 381.752 131.246 379.859 139.289C379.859 139.289 380.498 144.07 379.22 145.345C377.941 146.62 377.302 146.62 377.941 148.85C378.58 151.081 375.203 154.725 375.613 155.134C376.024 155.543 376.982 157.774 376.982 157.774L373.786 175.94C373.786 175.94 371.549 207.492 370.91 208.13C370.271 208.767 369.631 208.13 370.271 209.723C370.91 211.317 371.549 210.679 370.91 211.317C370.344 211.925 369.81 212.564 369.312 213.229H361.585C361.585 213.229 361.002 210.042 361.002 209.723C361.002 209.404 360.363 207.492 360.363 207.174C360.363 206.855 360.928 206.291 360.928 206.291C361.123 205.644 361.255 204.978 361.322 204.305C361.322 203.668 363.239 179.127 363.239 179.127L359.404 147.257L350.135 178.49C350.135 178.49 350.135 205.899 349.496 206.536C348.857 207.173 348.857 206.855 349.177 208.13C349.496 209.404 350.775 209.086 349.816 210.042C348.857 210.998 348.537 209.404 348.857 210.998L349.177 212.591L339.588 212.728C339.588 212.728 338.31 210.042 338.949 209.086C339.588 208.13 339.55 208.391 338.77 206.826C337.99 205.261 337.671 204.943 337.99 204.624C338.31 204.305 338.31 202.61 338.31 202.61L339.908 172.116C339.908 172.116 340.228 139.927 340.228 138.971C340.252 138.479 340.161 137.988 339.962 137.537V136.239L341.186 131.64L345.458 120.583Z" fill="#1A010C"/>
<path d="M363.736 57.4918C368.958 57.4918 373.19 53.2709 373.19 48.0643C373.19 42.8577 368.958 38.6368 363.736 38.6368C358.515 38.6368 354.282 42.8577 354.282 48.0643C354.282 53.2709 358.515 57.4918 363.736 57.4918Z" fill="#FFD4C0"/>
<path d="M359.009 63.7226C356.972 64.9301 355.754 67.1486 355.055 69.4062C353.76 73.5857 352.98 77.907 352.733 82.2746L351.995 95.3503L342.846 123.192C350.775 129.882 380.58 124.713 380.58 124.713C380.58 124.713 381.495 124.408 380.58 123.496C379.665 122.584 378.774 123.392 379.689 122.48C380.604 121.567 379.973 122.584 379.668 121.671C379.363 120.759 379.668 121.367 379.973 121.063C380.278 120.759 377.612 118.022 377.612 118.022L380.052 102.041L383.102 69.8048C379.442 65.2432 372.082 62.5541 372.082 62.5541L370.18 59.1406L360.672 59.8991L359.009 63.7226Z" fill="#EBEBEB"/>
<path d="M357.712 42.5315C358.078 42.5344 358.442 42.582 358.796 42.6734C359.495 42.8408 360.204 42.9593 360.918 43.0282C363.107 43.2335 365.164 44.1643 366.76 45.6718C368.355 47.1794 369.399 49.1767 369.723 51.3449C370.272 50.8673 371.522 49.9887 372.547 50.8052C372.562 50.8182 372.571 50.8249 372.608 50.8078C373.288 50.486 374.496 46.5239 374.532 43.0354C374.552 41.1839 374.259 38.8195 372.758 38.0708L372.679 38.0313L372.658 37.9456C372.558 37.5291 371.437 36.8181 369.488 36.2648C365.948 35.2592 360.67 33.3002 357.698 36.1831C357.474 37.155 356.742 39.2349 356.003 39.4706C355.184 39.7316 354.477 39.9568 354.366 40.9579C354.273 42.3827 354.28 43.8121 354.386 45.2359C354.664 44.3647 355.208 43.6021 355.943 43.0556C356.465 42.7049 357.083 42.522 357.712 42.5315Z" fill="#1A010C"/>
<path d="M340.116 94.6223L355.559 84.7599L347.781 74.4492L340.1 83.8704L316.169 85.334C315.539 84.7135 314.743 84.2891 313.875 84.1125C313.008 83.9358 312.108 84.0146 311.285 84.3392C310.462 84.6637 309.752 85.2201 309.24 85.9404C308.729 86.6607 308.439 87.5138 308.405 88.3958C308.371 89.2777 308.596 90.1503 309.051 90.9072C309.506 91.6641 310.172 92.2726 310.968 92.6585C311.764 93.0444 312.656 93.1911 313.534 93.0805C314.412 92.97 315.239 92.6071 315.914 92.036L340.116 94.6223Z" fill="#FFD4C0"/>
<path d="M369.892 70.9939C370.789 76.403 353.862 86.7321 353.862 86.7321C353.862 85.4625 343.76 95.0471 343.304 93.9942C342.008 91.0016 341.096 83.9134 339.285 82.7789C338.25 82.1301 345.523 76.0351 345.523 76.0351C345.523 76.0351 349.33 72.2105 354.326 67.3864C355.713 65.9965 357.43 64.979 359.318 64.4289C361.205 63.8787 363.202 63.8137 365.121 64.2399C365.121 64.2399 368.996 65.5848 369.892 70.9939Z" fill="#EBEBEB"/>
<path d="M401.724 97.2111L391.509 82.0236L381.336 89.9966L390.944 97.4543L392.918 121.282C392.31 121.922 391.901 122.726 391.742 123.594C391.583 124.462 391.681 125.358 392.024 126.171C392.367 126.985 392.94 127.682 393.673 128.176C394.406 128.671 395.267 128.942 396.152 128.957C397.037 128.972 397.907 128.729 398.657 128.26C399.406 127.79 400.002 127.113 400.372 126.311C400.742 125.509 400.87 124.618 400.741 123.745C400.611 122.872 400.23 122.055 399.643 121.394L401.724 97.2111Z" fill="#FFD4C0"/>
<path d="M377.403 68.0252C382.807 67.0171 393.522 83.6732 393.522 83.6732C392.249 83.7003 402.072 93.5691 401.026 94.046C398.053 95.4015 390.966 96.46 389.867 98.2895C389.238 99.3357 382.974 92.2138 382.974 92.2138C382.974 92.2138 379.058 88.4993 374.116 83.6206C372.693 82.2672 371.637 80.5767 371.045 78.7067C370.453 76.8366 370.346 74.8476 370.733 72.925C370.733 72.925 371.999 69.0333 377.403 68.0252Z" fill="#EBEBEB"/>
<path d="M404.333 223.549C404.333 223.608 404.322 223.667 404.299 223.722C404.277 223.776 404.243 223.826 404.201 223.868C404.159 223.91 404.109 223.943 404.054 223.966C403.999 223.989 403.94 224 403.881 224H297.273C297.153 224 297.037 223.952 296.953 223.868C296.868 223.783 296.82 223.668 296.82 223.549C296.82 223.429 296.868 223.314 296.953 223.23C297.037 223.145 297.153 223.097 297.273 223.097H403.881C403.94 223.097 403.999 223.109 404.054 223.131C404.109 223.154 404.159 223.187 404.201 223.229C404.243 223.271 404.277 223.321 404.299 223.376C404.322 223.431 404.333 223.489 404.333 223.549Z" fill="#C8C8C8"/>
<path d="M305.573 86.7754H176.19C174.168 86.7777 172.23 87.5794 170.801 89.0047C169.372 90.4301 168.568 92.3626 168.565 94.3783V174.704C168.568 176.72 169.372 178.653 170.801 180.078C172.23 181.503 174.168 182.305 176.19 182.307H305.573C307.595 182.305 309.533 181.503 310.962 180.078C312.391 178.653 313.195 176.72 313.198 174.704V94.3783C313.195 92.3626 312.391 90.43 310.962 89.0047C309.533 87.5794 307.595 86.7776 305.573 86.7754Z" fill="#D00561"/>
<path d="M305.573 86.7754H176.19C174.168 86.7777 172.23 87.5794 170.801 89.0047C169.372 90.4301 168.568 92.3626 168.565 94.3783V174.704C168.568 176.72 169.372 178.653 170.801 180.078C172.23 181.503 174.168 182.305 176.19 182.307H305.573C307.595 182.305 309.533 181.503 310.962 180.078C312.391 178.653 313.195 176.72 313.198 174.704V94.3783C313.195 92.3626 312.391 90.43 310.962 89.0047C309.533 87.5794 307.595 86.7776 305.573 86.7754ZM308.075 144.475C308.044 152.652 304.8 160.492 299.04 166.312C293.279 172.133 285.46 175.469 277.26 175.607C264.132 175.778 284.524 175.844 268.69 175.844C232.484 175.844 194.73 175.499 180.644 175.275C178.791 175.237 177.026 174.478 175.726 173.16C174.426 171.842 173.695 170.07 173.688 168.221V94.3842C173.688 93.7223 173.952 93.0876 174.421 92.619C174.89 92.1503 175.525 91.8859 176.189 91.8835H305.568C306.232 91.8843 306.868 92.1471 307.338 92.6145C307.808 93.0819 308.073 93.7158 308.075 94.3775V144.475Z" fill="#3D547E"/>
<path d="M289.646 39.521H191.07C190.198 39.5222 189.347 39.7919 188.634 40.2931C187.922 40.7943 187.381 41.5027 187.087 42.3215L171.863 84.9141C171.636 85.5499 171.565 86.2307 171.656 86.8994C171.748 87.5682 171.999 88.2052 172.388 88.757C172.778 89.3089 173.295 89.7594 173.895 90.0707C174.496 90.382 175.163 90.5449 175.839 90.5459L308.047 90.7799H308.053C308.752 90.7798 309.441 90.6067 310.057 90.2759C310.673 89.9451 311.197 89.4671 311.582 88.8846C311.968 88.3022 312.202 87.6335 312.264 86.9386C312.326 86.2436 312.214 85.5442 311.939 84.9029L293.533 42.0763C293.207 41.3175 292.665 40.6708 291.974 40.2165C291.284 39.7622 290.474 39.5204 289.646 39.521Z" fill="#2E3F5F"/>
<path d="M312.281 86.8279C312.281 87.399 312.164 87.9641 311.939 88.4891L293.534 121.456C293.206 122.213 292.663 122.858 291.973 123.312C291.282 123.765 290.473 124.007 289.646 124.008H191.071C190.199 124.007 189.348 123.738 188.634 123.237C187.921 122.736 187.38 122.028 187.085 121.209L171.864 88.4777C171.677 87.9563 171.595 87.4033 171.623 86.8503C171.651 86.2973 171.788 85.7553 172.026 85.2551C172.264 84.7549 172.599 84.3064 173.011 83.9353C173.423 83.5641 173.904 83.2776 174.427 83.092C174.88 82.9291 175.357 82.8457 175.838 82.8455L191.988 82.8152L198.579 82.8038L285.314 82.6521L291.909 82.6407L308.048 82.6104H308.051C309.173 82.6105 310.249 83.0549 311.042 83.8458C311.835 84.6367 312.281 85.7094 312.281 86.8279Z" fill="#2E3F5F"/>
<path d="M185.889 147.029C187.844 147.029 214.687 148.665 214.687 150.614C214.687 152.564 187.844 154.088 185.889 154.088C184.951 154.088 184.05 153.716 183.387 153.054C182.723 152.392 182.35 151.495 182.35 150.559C182.35 149.623 182.723 148.725 183.387 148.063C184.05 147.401 184.951 147.029 185.889 147.029Z" fill="#3D547E"/>
<path d="M283.508 14.6099H200.39C198.162 14.6125 196.027 15.496 194.452 17.0667C192.876 18.6373 191.99 20.7669 191.988 22.9881V124.008H289.646C290.448 124.011 291.234 123.783 291.909 123.352V22.9881C291.907 20.7669 291.021 18.6373 289.446 17.0667C287.871 15.496 285.735 14.6125 283.508 14.6099Z" fill="#EBEBEB"/>
<path d="M251.783 21.4027H206.232C204.204 21.4047 202.259 22.2088 200.824 23.6387C199.39 25.0685 198.582 27.0074 198.579 29.03V124.008H285.314V54.8397C285.304 45.9748 281.768 37.4759 275.482 31.2075C269.196 24.9391 260.673 21.413 251.783 21.4027Z" fill="white"/>
<path d="M270.538 115.573H213.356C212.862 115.573 212.388 115.769 212.038 116.118C211.689 116.466 211.492 116.939 211.492 117.432C211.492 117.925 211.689 118.397 212.038 118.746C212.388 119.094 212.862 119.29 213.356 119.29H270.538C271.032 119.29 271.506 119.094 271.855 118.746C272.205 118.397 272.401 117.925 272.401 117.432C272.401 116.939 272.205 116.466 271.855 116.118C271.506 115.769 271.032 115.573 270.538 115.573Z" fill="#EBEBEB"/>
<path d="M270.538 108.223H213.356C212.861 108.223 212.387 108.419 212.037 108.768C211.687 109.117 211.49 109.59 211.49 110.083C211.49 110.577 211.687 111.05 212.037 111.399C212.387 111.748 212.861 111.944 213.356 111.944H270.538C271.032 111.944 271.507 111.748 271.857 111.399C272.207 111.05 272.403 110.577 272.403 110.083C272.403 109.59 272.207 109.117 271.857 108.768C271.507 108.419 271.032 108.223 270.538 108.223Z" fill="#EBEBEB"/>
<path d="M238.143 100.876H213.356C212.862 100.876 212.388 101.072 212.038 101.421C211.689 101.769 211.492 102.242 211.492 102.735C211.492 103.228 211.689 103.7 212.038 104.049C212.388 104.397 212.862 104.593 213.356 104.593H238.143C238.638 104.593 239.112 104.397 239.461 104.049C239.811 103.7 240.007 103.228 240.007 102.735C240.007 102.242 239.811 101.769 239.461 101.421C239.112 101.072 238.638 100.876 238.143 100.876Z" fill="#EBEBEB"/>
<path d="M270.538 85.4853H213.356C212.861 85.4853 212.387 85.6813 212.037 86.0301C211.687 86.379 211.49 86.8522 211.49 87.3456C211.49 87.839 211.687 88.3122 212.037 88.6611C212.387 89.01 212.861 89.206 213.356 89.206H270.538C271.032 89.206 271.507 89.01 271.857 88.6611C272.207 88.3122 272.403 87.839 272.403 87.3456C272.403 86.8522 272.207 86.379 271.857 86.0301C271.507 85.6813 271.032 85.4853 270.538 85.4853Z" fill="#EBEBEB"/>
<path d="M270.538 78.1387H213.356C212.862 78.1387 212.388 78.3345 212.038 78.683C211.689 79.0315 211.492 79.5042 211.492 79.9971C211.492 80.49 211.689 80.9627 212.038 81.3112C212.388 81.6598 212.862 81.8556 213.356 81.8556H270.538C271.032 81.8556 271.506 81.6598 271.855 81.3112C272.205 80.9627 272.401 80.49 272.401 79.9971C272.401 79.5042 272.205 79.0315 271.855 78.683C271.506 78.3345 271.032 78.1387 270.538 78.1387Z" fill="#EBEBEB"/>
<path d="M238.143 70.7883H213.356C212.861 70.7883 212.387 70.9843 212.037 71.3332C211.687 71.6821 211.49 72.1553 211.49 72.6486C211.49 73.142 211.687 73.6152 212.037 73.9641C212.387 74.313 212.861 74.509 213.356 74.509H238.143C238.638 74.509 239.113 74.313 239.462 73.9641C239.812 73.6152 240.009 73.142 240.009 72.6486C240.009 72.1553 239.812 71.6821 239.462 71.3332C239.113 70.9843 238.638 70.7883 238.143 70.7883Z" fill="#EBEBEB"/>
<path d="M270.538 55.3973H213.356C212.861 55.3973 212.387 55.5933 212.037 55.9422C211.687 56.291 211.49 56.7642 211.49 57.2576C211.49 57.751 211.687 58.2242 212.037 58.5731C212.387 58.922 212.861 59.118 213.356 59.118H270.538C271.032 59.118 271.507 58.922 271.857 58.5731C272.207 58.2242 272.403 57.751 272.403 57.2576C272.403 56.7642 272.207 56.291 271.857 55.9422C271.507 55.5933 271.032 55.3973 270.538 55.3973Z" fill="#2E3F5F"/>
<path d="M270.538 48.0507H213.356C212.861 48.0507 212.387 48.2467 212.037 48.5956C211.687 48.9445 211.49 49.4176 211.49 49.911C211.49 50.4044 211.687 50.8776 212.037 51.2265C212.387 51.5754 212.861 51.7714 213.356 51.7714H270.538C271.032 51.7714 271.507 51.5754 271.857 51.2265C272.207 50.8776 272.403 50.4044 272.403 49.911C272.403 49.4176 272.207 48.9445 271.857 48.5956C271.507 48.2467 271.032 48.0507 270.538 48.0507Z" fill="#2E3F5F"/>
<path d="M238.143 40.7003H213.356C212.861 40.7003 212.387 40.8963 212.037 41.2452C211.687 41.5941 211.49 42.0673 211.49 42.5607C211.49 43.0541 211.687 43.5272 212.037 43.8761C212.387 44.225 212.861 44.421 213.356 44.421H238.143C238.638 44.421 239.113 44.225 239.462 43.8761C239.812 43.5272 240.009 43.0541 240.009 42.5607C240.009 42.0673 239.812 41.5941 239.462 41.2452C239.113 40.8963 238.638 40.7003 238.143 40.7003Z" fill="#2E3F5F"/>
<path d="M292 36C301.941 36 310 27.9411 310 18C310 8.05888 301.941 0 292 0C282.059 0 274 8.05888 274 18C274 27.9411 282.059 36 292 36Z" fill="#27AE60"/>
<path d="M290.012 27C289.697 27 289.386 26.9305 289.104 26.7969C288.823 26.6633 288.577 26.4694 288.388 26.2304L283.409 19.9402C283.249 19.7382 283.132 19.5081 283.065 19.2631C282.998 19.0181 282.983 18.763 283.02 18.5124C283.058 18.2619 283.147 18.0208 283.283 17.803C283.419 17.5852 283.599 17.3949 283.812 17.2431C284.026 17.0913 284.269 16.9809 284.528 16.9183C284.787 16.8556 285.056 16.842 285.32 16.8781C285.584 16.9143 285.839 16.9995 286.068 17.1289C286.298 17.2582 286.498 17.4292 286.658 17.6321L289.915 21.747L298.281 9.85657C298.58 9.43209 299.044 9.13741 299.572 9.03736C300.1 8.93731 300.648 9.04008 301.096 9.32307C301.544 9.60606 301.855 10.0461 301.961 10.5463C302.066 11.0466 301.958 11.5661 301.659 11.9906L291.701 26.1434C291.521 26.3994 291.279 26.6107 290.995 26.7596C290.711 26.9085 290.393 26.9908 290.069 26.9994C290.05 26.9997 290.031 27 290.012 27Z" fill="white"/>
</g>
<defs>
<clipPath id="clip0_1_726">
<rect width="256.667" height="224" fill="white" transform="translate(147.667)"/>
</clipPath>
</defs>
</svg>
