<svg width="22" height="20" viewBox="0 0 22 20" fill="none" xmlns="http://www.w3.org/2000/svg">
<path d="M16.0273 8.52734C15.8516 8.42188 15.7109 8.28125 15.5703 8.10547C15.4297 8.28125 15.2891 8.42188 15.1133 8.52734C14.5859 8.91406 13.9531 9.125 13.2852 9.125C12.582 9.125 11.9492 8.91406 11.457 8.52734C11.2812 8.42188 11.1055 8.28125 10.9648 8.10547C10.8242 8.28125 10.6836 8.42188 10.5078 8.52734C10.0156 8.91406 9.38281 9.125 8.67969 9.125C8.01172 9.125 7.37891 8.91406 6.85156 8.52734C6.67578 8.42188 6.53516 8.28125 6.39453 8.10547C6.25391 8.28125 6.11328 8.42188 5.9375 8.52734C5.41016 8.91406 4.77734 9.125 4.10938 9.125C3.96875 9.125 3.82812 9.125 3.6875 9.125C1.71875 8.84375 0.804688 6.55859 1.85938 4.90625L3.86328 1.74219C4.03906 1.42578 4.35547 1.25 4.70703 1.25H17.2578C17.6094 1.25 17.9258 1.42578 18.1016 1.74219L20.1055 4.90625C21.1602 6.55859 20.2461 8.84375 18.2773 9.125C18.1367 9.125 17.9961 9.125 17.8555 9.125C17.1523 9.125 16.5195 8.91406 16.0273 8.52734ZM17.1875 2.375H4.77734L2.80859 5.50391C2.14062 6.55859 2.80859 7.85938 3.82812 8C3.93359 8 4.00391 8 4.10938 8C4.67188 8 5.19922 7.75391 5.55078 7.36719C5.76172 7.12109 6.07812 6.98047 6.39453 6.98047C6.71094 6.98047 7.02734 7.12109 7.23828 7.36719C7.58984 7.75391 8.11719 8 8.67969 8C9.27734 8 9.76953 7.75391 10.1562 7.36719C10.3672 7.12109 10.6484 6.98047 10.9648 6.98047C11.2812 6.98047 11.5977 7.12109 11.8086 7.36719C12.1602 7.75391 12.6875 8 13.2852 8C13.8477 8 14.375 7.75391 14.7266 7.36719C14.9375 7.12109 15.2539 6.98047 15.5703 6.98047C15.8867 6.98047 16.168 7.12109 16.3789 7.36719C16.7656 7.75391 17.2578 8 17.8555 8C17.9609 8 18.0312 8 18.1367 8C19.1562 7.85938 19.8242 6.55859 19.1562 5.50391L17.1875 2.375ZM4.25 10.8125V13.625H17.75V10.8125C17.75 10.5312 17.9961 10.25 18.3125 10.25C18.5938 10.25 18.875 10.5312 18.875 10.8125V17C18.875 18.2656 17.8555 19.25 16.625 19.25H5.375C4.10938 19.25 3.125 18.2656 3.125 17V10.8125C3.125 10.5312 3.37109 10.25 3.6875 10.25C3.96875 10.25 4.25 10.5312 4.25 10.8125ZM4.25 17C4.25 17.6328 4.74219 18.125 5.375 18.125H16.625C17.2227 18.125 17.75 17.6328 17.75 17V14.75H4.25V17Z" fill="#3E4954"/>
</svg>
