<svg width="20" height="21" viewBox="0 0 20 21" fill="none" xmlns="http://www.w3.org/2000/svg">
<path d="M10 10.75C7.50391 10.75 5.5 8.74609 5.5 6.25C5.5 3.78906 7.50391 1.75 10 1.75C12.4609 1.75 14.5 3.78906 14.5 6.25C14.5 8.74609 12.4609 10.75 10 10.75ZM10 2.875C8.13672 2.875 6.625 4.42188 6.625 6.25C6.625 8.11328 8.13672 9.625 10 9.625C11.8281 9.625 13.375 8.11328 13.375 6.25C13.375 4.42188 11.8281 2.875 10 2.875ZM11.7578 12.4375C15.1328 12.4375 17.875 15.1797 17.875 18.5547C17.875 19.2227 17.3125 19.75 16.6445 19.75H3.32031C2.65234 19.75 2.125 19.2227 2.125 18.5547C2.125 15.1797 4.83203 12.4375 8.20703 12.4375H11.7578ZM16.6445 18.625C16.6797 18.625 16.75 18.5898 16.75 18.5547C16.75 15.8125 14.5 13.5625 11.7578 13.5625H8.20703C5.46484 13.5625 3.25 15.8125 3.25 18.5547C3.25 18.5898 3.28516 18.625 3.32031 18.625H16.6445Z" fill="#3E4954"/>
</svg>
